<?xml version="1.0" standalone="no"?>
<!DOCTYPE svg PUBLIC "-//W3C//DTD SVG 20010904//EN"
 "http://www.w3.org/TR/2001/REC-SVG-20010904/DTD/svg10.dtd">
<svg version="1.0" xmlns="http://www.w3.org/2000/svg"
 width="248.000000pt" height="248.000000pt" viewBox="0 0 248.000000 248.000000"
 preserveAspectRatio="xMidYMid meet">

<g transform="translate(0.000000,248.000000) scale(0.100000,-0.100000)"
fill="#000000" stroke="none">
<path d="M1201 2223 c-31 -33 -74 -92 -95 -132 -20 -39 -43 -71 -51 -71 -27 0
-192 -60 -250 -91 -88 -46 -224 -152 -225 -175 0 -6 -10 -19 -21 -30 -39 -35
-118 -162 -144 -231 -14 -37 -30 -77 -35 -88 -9 -19 -20 -60 -40 -150 -11 -50
-11 -192 0 -265 17 -110 51 -216 65 -203 4 5 5 -2 2 -15 -4 -18 -2 -22 9 -18
11 4 13 0 8 -20 -5 -18 0 -34 15 -54 11 -16 21 -36 21 -45 0 -8 6 -15 13 -15
8 0 19 -12 26 -27 22 -47 82 -123 93 -117 12 8 78 -63 78 -84 0 -8 6 -12 15
-8 8 3 15 0 15 -6 0 -6 3 -8 6 -5 4 4 15 -3 25 -14 9 -11 21 -21 26 -22 4 -1
7 -5 6 -9 -2 -4 5 -4 14 -1 12 5 14 3 8 -7 -6 -10 -4 -12 10 -6 19 7 85 -21
85 -36 0 -5 7 -8 16 -8 8 0 12 -5 9 -10 -4 -7 2 -9 19 -4 16 4 26 2 26 -5 0
-6 9 -11 20 -11 11 0 20 -5 20 -10 0 -7 13 -8 34 -5 20 4 36 2 40 -4 4 -6 26
-11 49 -11 31 0 38 -3 27 -10 -10 -7 7 -9 55 -8 69 1 70 1 20 8 -27 4 -48 8
-45 9 5 3 161 12 257 14 28 1 50 4 47 6 -8 8 47 30 91 37 25 3 45 12 45 18 0
7 17 18 38 26 54 22 59 23 42 11 -26 -18 3 -12 31 7 14 9 24 22 22 27 -1 6 21
29 49 53 29 23 67 58 83 78 17 20 41 48 55 63 14 14 31 38 39 54 11 20 17 24
24 15 6 -9 7 -8 3 5 -7 20 56 161 67 150 4 -3 7 3 7 15 0 12 5 22 10 22 6 0
10 12 10 28 0 15 7 40 15 56 12 23 14 48 9 113 -6 69 -4 83 7 81 11 -2 14 11
15 57 1 33 -2 65 -6 70 -4 6 -10 22 -14 38 -3 15 -11 27 -16 27 -14 0 -13 -17
2 -22 6 -2 9 -11 6 -18 -4 -9 -20 17 -42 63 -19 42 -38 77 -42 77 -4 0 -4 -26
-1 -57 4 -38 3 -49 -3 -31 -4 15 -15 36 -23 48 -14 21 -14 21 -33 -7 -15 -23
-18 -41 -14 -98 9 -146 4 -259 -14 -319 -46 -150 -157 -310 -272 -388 -42 -29
-205 -108 -223 -108 -5 0 -30 -7 -53 -15 -49 -16 -340 -27 -331 -11 4 5 -5 6
-20 2 -17 -4 -31 -1 -42 10 -8 9 -22 13 -31 10 -8 -3 -12 -2 -9 4 3 6 -3 10
-14 10 -10 0 -21 5 -23 11 -2 6 -16 12 -31 12 -17 1 -25 7 -22 15 2 6 -2 12
-10 12 -8 0 -15 5 -15 12 0 6 -3 9 -6 5 -3 -3 -18 5 -32 18 -14 13 -30 21 -35
18 -6 -3 -7 -2 -4 4 3 5 -17 32 -44 59 -53 51 -81 89 -127 176 -40 74 -58 137
-76 256 -14 92 -14 116 -1 205 15 111 24 139 88 267 32 66 60 103 122 166 44
44 99 89 122 100 24 10 41 24 39 30 -3 8 3 10 16 6 15 -4 19 -2 13 7 -6 10 -2
11 15 6 17 -5 22 -4 18 6 -4 11 7 14 50 15 34 0 57 5 60 12 2 7 10 12 18 12 9
0 12 5 8 12 -5 8 4 9 35 4 36 -5 45 -3 66 18 14 14 25 32 25 40 0 18 58 129
73 138 7 4 18 -11 30 -43 21 -55 62 -89 108 -89 38 0 198 -44 248 -68 56 -28
95 -28 132 -1 l29 20 0 -49 c0 -76 -34 -196 -77 -270 -31 -54 -47 -71 -84 -90
-70 -35 -131 -38 -233 -12 -83 21 -88 21 -107 4 -48 -43 -4 -125 88 -166 179
-79 410 18 492 207 12 28 26 59 32 70 13 28 36 116 55 206 21 106 7 254 -26
281 -32 26 -108 23 -180 -7 -60 -25 -71 -25 -135 5 -27 12 -142 40 -168 40
-16 0 -32 16 -55 55 -39 65 -87 104 -137 112 -35 6 -40 3 -94 -54z m786 -925
c-3 -8 -6 -5 -6 6 -1 11 2 17 5 13 3 -3 4 -12 1 -19z m130 -160 c-2 -13 -4 -5
-4 17 -1 22 1 32 4 23 2 -10 2 -28 0 -40z m-90 -15 c-3 -10 -5 -2 -5 17 0 19
2 27 5 18 2 -10 2 -26 0 -35z m43 17 c0 -10 -4 -22 -10 -25 -6 -4 -10 7 -10
25 0 18 4 29 10 25 6 -3 10 -15 10 -25z m-9 -152 c-9 -20 -10 -18 -10 17 0 31
2 36 9 23 6 -10 7 -25 1 -40z m-34 5 c-3 -10 -5 -4 -5 12 0 17 2 24 5 18 2 -7
2 -21 0 -30z m-10 -85 c-3 -8 -6 -5 -6 6 -1 11 2 17 5 13 3 -3 4 -12 1 -19z
m-86 -195 c-12 -20 -14 -14 -5 12 4 9 9 14 11 11 3 -2 0 -13 -6 -23z m42 -13
c-3 -11 -9 -20 -14 -20 -11 0 -11 3 -3 24 9 23 23 20 17 -4z m-53 -89 c0 -5
-7 -14 -15 -21 -16 -14 -18 -10 -9 14 6 17 24 22 24 7z m-64 -69 c-17 -16 -18
-16 -5 5 7 12 15 20 18 17 3 -2 -3 -12 -13 -22z"/>
<path d="M2060 1350 c0 -5 5 -10 10 -10 6 0 10 5 10 10 0 6 -4 10 -10 10 -5 0
-10 -4 -10 -10z"/>
<path d="M1930 529 c0 -5 5 -7 10 -4 6 3 10 8 10 11 0 2 -4 4 -10 4 -5 0 -10
-5 -10 -11z"/>
<path d="M1635 290 c-13 -5 -14 -9 -5 -9 8 0 24 4 35 9 13 5 14 9 5 9 -8 0
-24 -4 -35 -9z"/>
</g>
</svg>
